<svg width="66" height="20" viewBox="0 0 66 20" fill="none" xmlns="http://www.w3.org/2000/svg">
<mask id="path-1-outside-1_684_274" maskUnits="userSpaceOnUse" x="23" y="4" width="39" height="13" fill="black">
<rect fill="white" x="23" y="4" width="39" height="13"/>
<path d="M23.816 5.48H26.972C28.196 5.48 29.108 5.672 29.708 6.056C30.308 6.44 30.608 7.036 30.608 7.844C30.608 8.18 30.536 8.472 30.392 8.72C30.256 8.968 30.052 9.168 29.78 9.32C29.516 9.464 29.188 9.556 28.796 9.596C29.508 9.652 30.048 9.848 30.416 10.184C30.784 10.52 30.968 10.988 30.968 11.588C30.968 12.38 30.672 12.98 30.08 13.388C29.488 13.796 28.612 14 27.452 14H23.816V5.48ZM27.524 12.356C27.924 12.356 28.248 12.272 28.496 12.104C28.744 11.936 28.868 11.692 28.868 11.372C28.868 11.052 28.744 10.808 28.496 10.64C28.256 10.472 27.932 10.388 27.524 10.388H25.904V12.356H27.524ZM27.188 8.948C27.596 8.948 27.916 8.872 28.148 8.72C28.388 8.568 28.508 8.344 28.508 8.048C28.508 7.736 28.392 7.504 28.16 7.352C27.928 7.2 27.604 7.124 27.188 7.124H25.904V8.948H27.188ZM34.2435 7.64L34.3035 9.572L34.1595 9.536C34.2555 8.904 34.4355 8.432 34.6995 8.12C34.9715 7.8 35.3435 7.64 35.8155 7.64H36.3795V9.128H35.8035C35.4515 9.128 35.1635 9.18 34.9395 9.284C34.7235 9.388 34.5635 9.544 34.4595 9.752C34.3635 9.96 34.3155 10.228 34.3155 10.556V14H32.2515V7.64H34.2435ZM39.6124 7.64V14H37.5484V7.64H39.6124ZM39.6364 5.48V6.872H37.5124V5.48H39.6364ZM43.4414 13.724C42.8974 13.724 42.4174 13.6 42.0014 13.352C41.5934 13.104 41.2734 12.752 41.0414 12.296C40.8174 11.84 40.7054 11.312 40.7054 10.712C40.7054 10.072 40.8174 9.512 41.0414 9.032C41.2654 8.544 41.5854 8.168 42.0014 7.904C42.4174 7.632 42.8974 7.496 43.4414 7.496C43.8414 7.496 44.2014 7.596 44.5214 7.796C44.8494 7.988 45.1014 8.26 45.2774 8.612V7.64H47.3174V13.184C47.3174 13.744 47.1774 14.228 46.8974 14.636C46.6254 15.052 46.2374 15.372 45.7334 15.596C45.2374 15.82 44.6694 15.932 44.0294 15.932C43.5174 15.932 43.0454 15.86 42.6134 15.716C42.1894 15.572 41.8294 15.364 41.5334 15.092C41.2374 14.828 41.0254 14.516 40.8974 14.156L42.9974 14.012C43.0694 14.188 43.1974 14.328 43.3814 14.432C43.5734 14.544 43.7974 14.6 44.0534 14.6C44.4454 14.6 44.7414 14.496 44.9414 14.288C45.1414 14.08 45.2414 13.764 45.2414 13.34V12.788C45.0894 13.068 44.8494 13.296 44.5214 13.472C44.1934 13.64 43.8334 13.724 43.4414 13.724ZM42.8174 10.7C42.8174 11.204 42.9334 11.616 43.1654 11.936C43.3974 12.248 43.7014 12.404 44.0774 12.404C44.3254 12.404 44.5414 12.332 44.7254 12.188C44.9174 12.044 45.0654 11.844 45.1694 11.588C45.2734 11.332 45.3254 11.036 45.3254 10.7C45.3254 10.348 45.2774 10.044 45.1814 9.788C45.0854 9.532 44.9414 9.336 44.7494 9.2C44.5574 9.056 44.3334 8.984 44.0774 8.984C43.6934 8.984 43.3854 9.14 43.1534 9.452C42.9294 9.756 42.8174 10.172 42.8174 10.7ZM50.7804 5.48V9.152L50.4804 9.416C50.5604 8.736 50.7844 8.248 51.1524 7.952C51.5284 7.648 52.0004 7.496 52.5684 7.496C53.2244 7.496 53.7444 7.72 54.1284 8.168C54.5124 8.608 54.7044 9.188 54.7044 9.908V14H52.6404V10.64C52.6404 10.12 52.5764 9.74 52.4484 9.5C52.3284 9.252 52.1044 9.128 51.7764 9.128C51.4404 9.128 51.1884 9.26 51.0204 9.524C50.8604 9.78 50.7804 10.152 50.7804 10.64V14H48.7164V5.48H50.7804ZM58.8494 6.188V11.792C58.8494 12.016 58.9054 12.192 59.0174 12.32C59.1374 12.448 59.3054 12.512 59.5214 12.512H60.5294V14H59.0174C58.2734 14 57.7134 13.82 57.3374 13.46C56.9614 13.092 56.7734 12.536 56.7734 11.792V6.188H58.8494ZM60.5054 7.64V9.128H55.7054V7.64H60.5054Z"/>
</mask>
<path d="M23.816 5.48H26.972C28.196 5.48 29.108 5.672 29.708 6.056C30.308 6.44 30.608 7.036 30.608 7.844C30.608 8.18 30.536 8.472 30.392 8.72C30.256 8.968 30.052 9.168 29.78 9.32C29.516 9.464 29.188 9.556 28.796 9.596C29.508 9.652 30.048 9.848 30.416 10.184C30.784 10.52 30.968 10.988 30.968 11.588C30.968 12.38 30.672 12.98 30.08 13.388C29.488 13.796 28.612 14 27.452 14H23.816V5.48ZM27.524 12.356C27.924 12.356 28.248 12.272 28.496 12.104C28.744 11.936 28.868 11.692 28.868 11.372C28.868 11.052 28.744 10.808 28.496 10.64C28.256 10.472 27.932 10.388 27.524 10.388H25.904V12.356H27.524ZM27.188 8.948C27.596 8.948 27.916 8.872 28.148 8.72C28.388 8.568 28.508 8.344 28.508 8.048C28.508 7.736 28.392 7.504 28.16 7.352C27.928 7.2 27.604 7.124 27.188 7.124H25.904V8.948H27.188ZM34.2435 7.64L34.3035 9.572L34.1595 9.536C34.2555 8.904 34.4355 8.432 34.6995 8.12C34.9715 7.8 35.3435 7.64 35.8155 7.64H36.3795V9.128H35.8035C35.4515 9.128 35.1635 9.18 34.9395 9.284C34.7235 9.388 34.5635 9.544 34.4595 9.752C34.3635 9.96 34.3155 10.228 34.3155 10.556V14H32.2515V7.64H34.2435ZM39.6124 7.64V14H37.5484V7.64H39.6124ZM39.6364 5.48V6.872H37.5124V5.48H39.6364ZM43.4414 13.724C42.8974 13.724 42.4174 13.6 42.0014 13.352C41.5934 13.104 41.2734 12.752 41.0414 12.296C40.8174 11.84 40.7054 11.312 40.7054 10.712C40.7054 10.072 40.8174 9.512 41.0414 9.032C41.2654 8.544 41.5854 8.168 42.0014 7.904C42.4174 7.632 42.8974 7.496 43.4414 7.496C43.8414 7.496 44.2014 7.596 44.5214 7.796C44.8494 7.988 45.1014 8.26 45.2774 8.612V7.64H47.3174V13.184C47.3174 13.744 47.1774 14.228 46.8974 14.636C46.6254 15.052 46.2374 15.372 45.7334 15.596C45.2374 15.82 44.6694 15.932 44.0294 15.932C43.5174 15.932 43.0454 15.86 42.6134 15.716C42.1894 15.572 41.8294 15.364 41.5334 15.092C41.2374 14.828 41.0254 14.516 40.8974 14.156L42.9974 14.012C43.0694 14.188 43.1974 14.328 43.3814 14.432C43.5734 14.544 43.7974 14.6 44.0534 14.6C44.4454 14.6 44.7414 14.496 44.9414 14.288C45.1414 14.08 45.2414 13.764 45.2414 13.34V12.788C45.0894 13.068 44.8494 13.296 44.5214 13.472C44.1934 13.64 43.8334 13.724 43.4414 13.724ZM42.8174 10.7C42.8174 11.204 42.9334 11.616 43.1654 11.936C43.3974 12.248 43.7014 12.404 44.0774 12.404C44.3254 12.404 44.5414 12.332 44.7254 12.188C44.9174 12.044 45.0654 11.844 45.1694 11.588C45.2734 11.332 45.3254 11.036 45.3254 10.7C45.3254 10.348 45.2774 10.044 45.1814 9.788C45.0854 9.532 44.9414 9.336 44.7494 9.2C44.5574 9.056 44.3334 8.984 44.0774 8.984C43.6934 8.984 43.3854 9.14 43.1534 9.452C42.9294 9.756 42.8174 10.172 42.8174 10.7ZM50.7804 5.48V9.152L50.4804 9.416C50.5604 8.736 50.7844 8.248 51.1524 7.952C51.5284 7.648 52.0004 7.496 52.5684 7.496C53.2244 7.496 53.7444 7.72 54.1284 8.168C54.5124 8.608 54.7044 9.188 54.7044 9.908V14H52.6404V10.64C52.6404 10.12 52.5764 9.74 52.4484 9.5C52.3284 9.252 52.1044 9.128 51.7764 9.128C51.4404 9.128 51.1884 9.26 51.0204 9.524C50.8604 9.78 50.7804 10.152 50.7804 10.64V14H48.7164V5.48H50.7804ZM58.8494 6.188V11.792C58.8494 12.016 58.9054 12.192 59.0174 12.32C59.1374 12.448 59.3054 12.512 59.5214 12.512H60.5294V14H59.0174C58.2734 14 57.7134 13.82 57.3374 13.46C56.9614 13.092 56.7734 12.536 56.7734 11.792V6.188H58.8494ZM60.5054 7.64V9.128H55.7054V7.64H60.5054Z" fill="white"/>
<path d="M23.816 5.48V4.98H23.316V5.48H23.816ZM29.708 6.056L29.9775 5.63486V5.63486L29.708 6.056ZM30.392 8.72L29.9595 8.46886L29.9536 8.47958L30.392 8.72ZM29.78 9.32L30.0194 9.75897L30.0239 9.75647L29.78 9.32ZM28.796 9.596L28.7452 9.09858L28.7568 10.0945L28.796 9.596ZM23.816 14H23.316V14.5H23.816V14ZM28.496 12.104L28.7764 12.518V12.518L28.496 12.104ZM28.496 10.64L28.2092 11.0497L28.2156 11.054L28.496 10.64ZM25.904 10.388V9.888H25.404V10.388H25.904ZM25.904 12.356H25.404V12.856H25.904V12.356ZM28.148 8.72L27.8804 8.29754L27.874 8.30177L28.148 8.72ZM28.16 7.352L27.886 7.77023H27.886L28.16 7.352ZM25.904 7.124V6.624H25.404V7.124H25.904ZM25.904 8.948H25.404V9.448H25.904V8.948ZM23.816 5.48V5.98H26.972V5.48V4.98H23.816V5.48ZM26.972 5.48V5.98C28.1611 5.98 28.9581 6.16969 29.4385 6.47714L29.708 6.056L29.9775 5.63486C29.2579 5.17431 28.2309 4.98 26.972 4.98V5.48ZM29.708 6.056L29.4385 6.47713C29.8735 6.75558 30.108 7.17952 30.108 7.844H30.608H31.108C31.108 6.89248 30.7425 6.12442 29.9775 5.63486L29.708 6.056ZM30.608 7.844H30.108C30.108 8.10708 30.0522 8.3094 29.9596 8.46893L30.392 8.72L30.8244 8.97107C31.0198 8.6346 31.108 8.25291 31.108 7.844H30.608ZM30.392 8.72L29.9536 8.47958C29.8673 8.63702 29.7348 8.77251 29.5361 8.88353L29.78 9.32L30.0239 9.75647C30.3692 9.56349 30.6447 9.29898 30.8304 8.96042L30.392 8.72ZM29.78 9.32L29.5406 8.88105C29.35 8.98499 29.0906 9.06334 28.7452 9.09858L28.796 9.596L28.8468 10.0934C29.2854 10.0487 29.682 9.94301 30.0194 9.75895L29.78 9.32ZM28.796 9.596L28.7568 10.0945C29.4046 10.1454 29.822 10.3187 30.0789 10.5532L30.416 10.184L30.7531 9.81476C30.274 9.37731 29.6114 9.15859 28.8352 9.09754L28.796 9.596ZM30.416 10.184L30.0789 10.5532C30.3222 10.7754 30.468 11.0974 30.468 11.588H30.968H31.468C31.468 10.8786 31.2458 10.2646 30.7531 9.81476L30.416 10.184ZM30.968 11.588H30.468C30.468 12.2351 30.2375 12.6722 29.7963 12.9763L30.08 13.388L30.3637 13.7997C31.1065 13.2878 31.468 12.5249 31.468 11.588H30.968ZM30.08 13.388L29.7963 12.9763C29.3247 13.3013 28.5675 13.5 27.452 13.5V14V14.5C28.6565 14.5 29.6513 14.2907 30.3637 13.7997L30.08 13.388ZM27.452 14V13.5H23.816V14V14.5H27.452V14ZM23.816 14H24.316V5.48H23.816H23.316V14H23.816ZM27.524 12.356V12.856C27.9911 12.856 28.4221 12.758 28.7764 12.518L28.496 12.104L28.2156 11.69C28.0739 11.786 27.8569 11.856 27.524 11.856V12.356ZM28.496 12.104L28.7764 12.518C29.1725 12.2496 29.368 11.8444 29.368 11.372H28.868H28.368C28.368 11.5396 28.3155 11.6224 28.2156 11.69L28.496 12.104ZM28.868 11.372H29.368C29.368 10.8996 29.1725 10.4944 28.7764 10.226L28.496 10.64L28.2156 11.054C28.3155 11.1216 28.368 11.2044 28.368 11.372H28.868ZM28.496 10.64L28.7827 10.2304C28.4315 9.98454 27.9955 9.888 27.524 9.888V10.388V10.888C27.8685 10.888 28.0805 10.9595 28.2093 11.0496L28.496 10.64ZM27.524 10.388V9.888H25.904V10.388V10.888H27.524V10.388ZM25.904 10.388H25.404V12.356H25.904H26.404V10.388H25.904ZM25.904 12.356V12.856H27.524V12.356V11.856H25.904V12.356ZM27.188 8.948V9.448C27.6501 9.448 28.0787 9.36317 28.422 9.13823L28.148 8.72L27.874 8.30177C27.7533 8.38083 27.5419 8.448 27.188 8.448V8.948ZM28.148 8.72L28.4155 9.14241C28.8075 8.89418 29.008 8.50664 29.008 8.048H28.508H28.008C28.008 8.18136 27.9685 8.24182 27.8805 8.29759L28.148 8.72ZM28.508 8.048H29.008C29.008 7.59217 28.8266 7.19096 28.434 6.93377L28.16 7.352L27.886 7.77023C27.9574 7.81704 28.008 7.87983 28.008 8.048H28.508ZM28.16 7.352L28.434 6.93377C28.0894 6.70798 27.6558 6.624 27.188 6.624V7.124V7.624C27.5522 7.624 27.7666 7.69202 27.886 7.77023L28.16 7.352ZM27.188 7.124V6.624H25.904V7.124V7.624H27.188V7.124ZM25.904 7.124H25.404V8.948H25.904H26.404V7.124H25.904ZM25.904 8.948V9.448H27.188V8.948V8.448H25.904V8.948ZM34.2435 7.64L34.7433 7.62448L34.7282 7.14H34.2435V7.64ZM34.3035 9.572L34.1823 10.0571L34.8238 10.2175L34.8033 9.55648L34.3035 9.572ZM34.1595 9.536L33.6652 9.46091L33.5969 9.91072L34.0383 10.0211L34.1595 9.536ZM34.6995 8.12L34.3186 7.79618L34.3178 7.79703L34.6995 8.12ZM36.3795 7.64H36.8795V7.14H36.3795V7.64ZM36.3795 9.128V9.628H36.8795V9.128H36.3795ZM34.9395 9.284L34.729 8.83045L34.7226 8.8335L34.9395 9.284ZM34.4595 9.752L34.0123 9.52839L34.0088 9.53538L34.0056 9.54247L34.4595 9.752ZM34.3155 14V14.5H34.8155V14H34.3155ZM32.2515 14H31.7515V14.5H32.2515V14ZM32.2515 7.64V7.14H31.7515V7.64H32.2515ZM34.2435 7.64L33.7438 7.65552L33.8038 9.58752L34.3035 9.572L34.8033 9.55648L34.7433 7.62448L34.2435 7.64ZM34.3035 9.572L34.4248 9.08693L34.2808 9.05093L34.1595 9.536L34.0383 10.0211L34.1823 10.0571L34.3035 9.572ZM34.1595 9.536L34.6539 9.61109C34.7431 9.02331 34.9017 8.6551 35.0812 8.44297L34.6995 8.12L34.3178 7.79703C33.9693 8.2089 33.7679 8.78469 33.6652 9.46091L34.1595 9.536ZM34.6995 8.12L35.0805 8.44382C35.2451 8.25024 35.4698 8.14 35.8155 8.14V7.64V7.14C35.2172 7.14 34.698 7.34976 34.3186 7.79618L34.6995 8.12ZM35.8155 7.64V8.14H36.3795V7.64V7.14H35.8155V7.64ZM36.3795 7.64H35.8795V9.128H36.3795H36.8795V7.64H36.3795ZM36.3795 9.128V8.628H35.8035V9.128V9.628H36.3795V9.128ZM35.8035 9.128V8.628C35.4075 8.628 35.0408 8.68572 34.729 8.8305L34.9395 9.284L35.1501 9.7375C35.2863 9.67428 35.4955 9.628 35.8035 9.628V9.128ZM34.9395 9.284L34.7226 8.8335C34.4102 8.98394 34.1675 9.2181 34.0123 9.52839L34.4595 9.752L34.9067 9.97561C34.9596 9.8699 35.0369 9.79206 35.1564 9.7345L34.9395 9.284ZM34.4595 9.752L34.0056 9.54247C33.8691 9.83817 33.8155 10.1846 33.8155 10.556H34.3155H34.8155C34.8155 10.2714 34.858 10.0818 34.9135 9.96153L34.4595 9.752ZM34.3155 10.556H33.8155V14H34.3155H34.8155V10.556H34.3155ZM34.3155 14V13.5H32.2515V14V14.5H34.3155V14ZM32.2515 14H32.7515V7.64H32.2515H31.7515V14H32.2515ZM32.2515 7.64V8.14H34.2435V7.64V7.14H32.2515V7.64ZM39.6124 7.64H40.1124V7.14H39.6124V7.64ZM39.6124 14V14.5H40.1124V14H39.6124ZM37.5484 14H37.0484V14.5H37.5484V14ZM37.5484 7.64V7.14H37.0484V7.64H37.5484ZM39.6364 5.48H40.1364V4.98H39.6364V5.48ZM39.6364 6.872V7.372H40.1364V6.872H39.6364ZM37.5124 6.872H37.0124V7.372H37.5124V6.872ZM37.5124 5.48V4.98H37.0124V5.48H37.5124ZM39.6124 7.64H39.1124V14H39.6124H40.1124V7.64H39.6124ZM39.6124 14V13.5H37.5484V14V14.5H39.6124V14ZM37.5484 14H38.0484V7.64H37.5484H37.0484V14H37.5484ZM37.5484 7.64V8.14H39.6124V7.64V7.14H37.5484V7.64ZM39.6364 5.48H39.1364V6.872H39.6364H40.1364V5.48H39.6364ZM39.6364 6.872V6.372H37.5124V6.872V7.372H39.6364V6.872ZM37.5124 6.872H38.0124V5.48H37.5124H37.0124V6.872H37.5124ZM37.5124 5.48V5.98H39.6364V5.48V4.98H37.5124V5.48ZM42.0014 13.352L41.7417 13.7793L41.7454 13.7815L42.0014 13.352ZM41.0414 12.296L40.5926 12.5165L40.5958 12.5227L41.0414 12.296ZM41.0414 9.032L41.4945 9.24345L41.4959 9.24058L41.0414 9.032ZM42.0014 7.904L42.2694 8.3262L42.2751 8.32248L42.0014 7.904ZM44.5214 7.796L44.2564 8.22L44.2626 8.22384L44.2688 8.22751L44.5214 7.796ZM45.2774 8.612L44.8302 8.83561L45.7774 8.612H45.2774ZM45.2774 7.64V7.14H44.7774V7.64H45.2774ZM47.3174 7.64H47.8174V7.14H47.3174V7.64ZM46.8974 14.636L46.4851 14.353L46.479 14.3624L46.8974 14.636ZM45.7334 15.596L45.5304 15.1391L45.5276 15.1403L45.7334 15.596ZM42.6134 15.716L42.4526 16.1894L42.4553 16.1903L42.6134 15.716ZM41.5334 15.092L41.8718 14.7238L41.8662 14.7189L41.5334 15.092ZM40.8974 14.156L40.8632 13.6572L40.2054 13.7023L40.4263 14.3235L40.8974 14.156ZM42.9974 14.012L43.4602 13.8227L43.3235 13.4885L42.9632 13.5132L42.9974 14.012ZM43.3814 14.432L43.6334 14.0001L43.6275 13.9967L43.3814 14.432ZM44.9414 14.288L44.581 13.9414L44.9414 14.288ZM45.2414 12.788H45.7414L44.802 12.5495L45.2414 12.788ZM44.5214 13.472L44.7494 13.9171L44.7578 13.9126L44.5214 13.472ZM43.1654 11.936L42.7606 12.2295L42.7642 12.2344L43.1654 11.936ZM44.7254 12.188L44.4254 11.7879L44.4173 11.7942L44.7254 12.188ZM45.1694 11.588L45.6327 11.7762V11.7762L45.1694 11.588ZM45.1814 9.788L44.7133 9.96356L44.7133 9.96356L45.1814 9.788ZM44.7494 9.2L44.4493 9.60015L44.4604 9.60801L44.7494 9.2ZM43.1534 9.452L42.7522 9.15365L42.7509 9.1554L43.1534 9.452ZM43.4414 13.724V13.224C42.9762 13.224 42.5868 13.1189 42.2575 12.9225L42.0014 13.352L41.7454 13.7815C42.2481 14.0811 42.8187 14.224 43.4414 14.224V13.724ZM42.0014 13.352L42.2611 12.9247C41.9383 12.7285 41.6801 12.4486 41.4871 12.0693L41.0414 12.296L40.5958 12.5227C40.8668 13.0554 41.2486 13.4795 41.7417 13.7793L42.0014 13.352ZM41.0414 12.296L41.4902 12.0755C41.3055 11.6995 41.2054 11.2493 41.2054 10.712H40.7054H40.2054C40.2054 11.3747 40.3294 11.9805 40.5927 12.5165L41.0414 12.296ZM40.7054 10.712H41.2054C41.2054 10.1301 41.3072 9.6449 41.4945 9.24344L41.0414 9.032L40.5883 8.82056C40.3277 9.3791 40.2054 10.0139 40.2054 10.712H40.7054ZM41.0414 9.032L41.4959 9.24058C41.6834 8.83208 41.9421 8.53383 42.2694 8.32616L42.0014 7.904L41.7335 7.48183C41.2288 7.80217 40.8475 8.25592 40.587 8.82342L41.0414 9.032ZM42.0014 7.904L42.2751 8.32248C42.6021 8.10867 42.9851 7.996 43.4414 7.996V7.496V6.996C42.8098 6.996 42.2328 7.15533 41.7278 7.48552L42.0014 7.904ZM43.4414 7.496V7.996C43.7536 7.996 44.0207 8.07269 44.2564 8.22L44.5214 7.796L44.7864 7.372C44.3821 7.11931 43.9293 6.996 43.4414 6.996V7.496ZM44.5214 7.796L44.2688 8.22751C44.5101 8.36873 44.6959 8.56706 44.8302 8.83561L45.2774 8.612L45.7247 8.38839C45.5069 7.95294 45.1888 7.60726 44.774 7.36449L44.5214 7.796ZM45.2774 8.612H45.7774V7.64H45.2774H44.7774V8.612H45.2774ZM45.2774 7.64V8.14H47.3174V7.64V7.14H45.2774V7.64ZM47.3174 7.64H46.8174V13.184H47.3174H47.8174V7.64H47.3174ZM47.3174 13.184H46.8174C46.8174 13.6568 46.7007 14.039 46.4852 14.3531L46.8974 14.636L47.3097 14.9189C47.6542 14.417 47.8174 13.8312 47.8174 13.184H47.3174ZM46.8974 14.636L46.479 14.3624C46.2653 14.6891 45.9564 14.9497 45.5304 15.1391L45.7334 15.596L45.9365 16.0529C46.5185 15.7943 46.9856 15.4149 47.3159 14.9096L46.8974 14.636ZM45.7334 15.596L45.5276 15.1403C45.1067 15.3304 44.6108 15.432 44.0294 15.432V15.932V16.432C44.7281 16.432 45.3682 16.3096 45.9392 16.0517L45.7334 15.596ZM44.0294 15.932V15.432C43.5646 15.432 43.1467 15.3667 42.7716 15.2417L42.6134 15.716L42.4553 16.1903C42.9442 16.3533 43.4703 16.432 44.0294 16.432V15.932ZM42.6134 15.716L42.7742 15.2426C42.4086 15.1184 42.111 14.9437 41.8717 14.7238L41.5334 15.092L41.1951 15.4602C41.5479 15.7843 41.9703 16.0256 42.4526 16.1894L42.6134 15.716ZM41.5334 15.092L41.8662 14.7189C41.6304 14.5085 41.4673 14.2664 41.3685 13.9885L40.8974 14.156L40.4263 14.3235C40.5835 14.7656 40.8445 15.1475 41.2006 15.4651L41.5334 15.092ZM40.8974 14.156L40.9316 14.6548L43.0316 14.5108L42.9974 14.012L42.9632 13.5132L40.8632 13.6572L40.8974 14.156ZM42.9974 14.012L42.5347 14.2013C42.654 14.493 42.8651 14.7145 43.1354 14.8673L43.3814 14.432L43.6275 13.9967C43.5298 13.9415 43.4849 13.883 43.4602 13.8227L42.9974 14.012ZM43.3814 14.432L43.1295 14.8639C43.4089 15.0269 43.7225 15.1 44.0534 15.1V14.6V14.1C43.8723 14.1 43.7379 14.0611 43.6334 14.0001L43.3814 14.432ZM44.0534 14.6V15.1C44.5311 15.1 44.9776 14.9718 45.3019 14.6346L44.9414 14.288L44.581 13.9414C44.5053 14.0202 44.3598 14.1 44.0534 14.1V14.6ZM44.9414 14.288L45.3019 14.6346C45.6258 14.2976 45.7414 13.8331 45.7414 13.34H45.2414H44.7414C44.7414 13.6949 44.657 13.8624 44.581 13.9414L44.9414 14.288ZM45.2414 13.34H45.7414V12.788H45.2414H44.7414V13.34H45.2414ZM45.2414 12.788L44.802 12.5495C44.7039 12.7301 44.5419 12.8936 44.285 13.0314L44.5214 13.472L44.7578 13.9126C45.157 13.6984 45.4749 13.4059 45.6809 13.0265L45.2414 12.788ZM44.5214 13.472L44.2935 13.027C44.0405 13.1566 43.7594 13.224 43.4414 13.224V13.724V14.224C43.9075 14.224 44.3464 14.1234 44.7494 13.917L44.5214 13.472ZM42.8174 10.7H42.3174C42.3174 11.2803 42.4516 11.8032 42.7606 12.2295L43.1654 11.936L43.5702 11.6425C43.4153 11.4288 43.3174 11.1277 43.3174 10.7H42.8174ZM43.1654 11.936L42.7642 12.2344C43.0868 12.6681 43.5371 12.904 44.0774 12.904V12.404V11.904C43.8658 11.904 43.7081 11.8279 43.5667 11.6376L43.1654 11.936ZM44.0774 12.404V12.904C44.4298 12.904 44.756 12.799 45.0336 12.5818L44.7254 12.188L44.4173 11.7942C44.3269 11.865 44.2211 11.904 44.0774 11.904V12.404ZM44.7254 12.188L45.0254 12.588C45.3005 12.3817 45.4998 12.1034 45.6327 11.7762L45.1694 11.588L44.7062 11.3998C44.6311 11.5846 44.5344 11.7063 44.4254 11.788L44.7254 12.188ZM45.1694 11.588L45.6327 11.7762C45.7656 11.449 45.8254 11.087 45.8254 10.7H45.3254H44.8254C44.8254 10.985 44.7813 11.215 44.7062 11.3998L45.1694 11.588ZM45.3254 10.7H45.8254C45.8254 10.3044 45.7717 9.93812 45.6496 9.61244L45.1814 9.788L44.7133 9.96356C44.7831 10.1499 44.8254 10.3916 44.8254 10.7H45.3254ZM45.1814 9.788L45.6496 9.61244C45.5243 9.27836 45.3247 8.99473 45.0384 8.79199L44.7494 9.2L44.4604 9.60801C44.5582 9.67727 44.6466 9.78564 44.7133 9.96356L45.1814 9.788ZM44.7494 9.2L45.0494 8.8C44.7649 8.58663 44.4339 8.484 44.0774 8.484V8.984V9.484C44.2329 9.484 44.3499 9.52537 44.4494 9.6L44.7494 9.2ZM44.0774 8.984V8.484C43.533 8.484 43.0772 8.71665 42.7522 9.15365L43.1534 9.452L43.5547 9.75035C43.6937 9.56335 43.8539 9.484 44.0774 9.484V8.984ZM43.1534 9.452L42.7509 9.1554C42.4428 9.57356 42.3174 10.1067 42.3174 10.7H42.8174H43.3174C43.3174 10.2373 43.4161 9.93844 43.556 9.7486L43.1534 9.452ZM50.7804 5.48H51.2804V4.98H50.7804V5.48ZM50.7804 9.152L51.1107 9.52736L51.2804 9.37803V9.152H50.7804ZM50.4804 9.416L49.9838 9.35758L49.8314 10.6531L50.8107 9.79136L50.4804 9.416ZM51.1524 7.952L51.4658 8.34161L51.4667 8.34081L51.1524 7.952ZM54.1284 8.168L53.7487 8.49341L53.7517 8.49677L54.1284 8.168ZM54.7044 14V14.5H55.2044V14H54.7044ZM52.6404 14H52.1404V14.5H52.6404V14ZM52.4484 9.5L51.9983 9.71778L52.0026 9.72662L52.0072 9.73529L52.4484 9.5ZM51.0204 9.524L50.5985 9.25555L50.5964 9.259L51.0204 9.524ZM50.7804 14V14.5H51.2804V14H50.7804ZM48.7164 14H48.2164V14.5H48.7164V14ZM48.7164 5.48V4.98H48.2164V5.48H48.7164ZM50.7804 5.48H50.2804V9.152H50.7804H51.2804V5.48H50.7804ZM50.7804 9.152L50.4501 8.77664L50.1501 9.04064L50.4804 9.416L50.8107 9.79136L51.1107 9.52736L50.7804 9.152ZM50.4804 9.416L50.9769 9.47442C51.0485 8.8661 51.238 8.52478 51.4658 8.34161L51.1524 7.952L50.839 7.56239C50.3307 7.97122 50.0722 8.6059 49.9838 9.35758L50.4804 9.416ZM51.1524 7.952L51.4667 8.34081C51.7388 8.12088 52.0939 7.996 52.5684 7.996V7.496V6.996C51.9068 6.996 51.318 7.17512 50.838 7.56319L51.1524 7.952ZM52.5684 7.496V7.996C53.0967 7.996 53.4711 8.16942 53.7487 8.4934L54.1284 8.168L54.508 7.8426C54.0177 7.27058 53.352 6.996 52.5684 6.996V7.496ZM54.1284 8.168L53.7517 8.49677C54.0388 8.82581 54.2044 9.27961 54.2044 9.908H54.7044H55.2044C55.2044 9.09639 54.9859 8.39019 54.5051 7.83923L54.1284 8.168ZM54.7044 9.908H54.2044V14H54.7044H55.2044V9.908H54.7044ZM54.7044 14V13.5H52.6404V14V14.5H54.7044V14ZM52.6404 14H53.1404V10.64H52.6404H52.1404V14H52.6404ZM52.6404 10.64H53.1404C53.1404 10.0999 53.0775 9.61704 52.8896 9.26471L52.4484 9.5L52.0072 9.73529C52.0753 9.86296 52.1404 10.1401 52.1404 10.64H52.6404ZM52.4484 9.5L52.8985 9.28222C52.7971 9.07274 52.6418 8.89942 52.4325 8.78355C52.2284 8.67057 52.0018 8.628 51.7764 8.628V9.128V9.628C51.8789 9.628 51.9283 9.64743 51.9482 9.65845C51.9629 9.66658 51.9797 9.67926 51.9983 9.71778L52.4484 9.5ZM51.7764 9.128V8.628C51.2845 8.628 50.8662 8.83504 50.5985 9.25556L51.0204 9.524L51.4422 9.79244C51.5106 9.68496 51.5962 9.628 51.7764 9.628V9.128ZM51.0204 9.524L50.5964 9.259C50.3648 9.62945 50.2804 10.1106 50.2804 10.64H50.7804H51.2804C51.2804 10.1934 51.3559 9.93055 51.4444 9.789L51.0204 9.524ZM50.7804 10.64H50.2804V14H50.7804H51.2804V10.64H50.7804ZM50.7804 14V13.5H48.7164V14V14.5H50.7804V14ZM48.7164 14H49.2164V5.48H48.7164H48.2164V14H48.7164ZM48.7164 5.48V5.98H50.7804V5.48V4.98H48.7164V5.48ZM58.8494 6.188H59.3494V5.688H58.8494V6.188ZM59.0174 12.32L58.6411 12.6493L58.6468 12.6557L58.6527 12.662L59.0174 12.32ZM60.5294 12.512H61.0294V12.012H60.5294V12.512ZM60.5294 14V14.5H61.0294V14H60.5294ZM57.3374 13.46L56.9877 13.8174L56.9917 13.8212L57.3374 13.46ZM56.7734 6.188V5.688H56.2734V6.188H56.7734ZM60.5054 7.64H61.0054V7.14H60.5054V7.64ZM60.5054 9.128V9.628H61.0054V9.128H60.5054ZM55.7054 9.128H55.2054V9.628H55.7054V9.128ZM55.7054 7.64V7.14H55.2054V7.64H55.7054ZM58.8494 6.188H58.3494V11.792H58.8494H59.3494V6.188H58.8494ZM58.8494 11.792H58.3494C58.3494 12.098 58.427 12.4045 58.6411 12.6493L59.0174 12.32L59.3937 11.9907C59.3839 11.9795 59.3494 11.934 59.3494 11.792H58.8494ZM59.0174 12.32L58.6527 12.662C58.8883 12.9133 59.2015 13.012 59.5214 13.012V12.512V12.012C59.4094 12.012 59.3866 11.9827 59.3822 11.978L59.0174 12.32ZM59.5214 12.512V13.012H60.5294V12.512V12.012H59.5214V12.512ZM60.5294 12.512H60.0294V14H60.5294H61.0294V12.512H60.5294ZM60.5294 14V13.5H59.0174V14V14.5H60.5294V14ZM59.0174 14V13.5C58.347 13.5 57.9327 13.3377 57.6832 13.0988L57.3374 13.46L56.9917 13.8212C57.4942 14.3023 58.1999 14.5 59.0174 14.5V14ZM57.3374 13.46L57.6872 13.1027C57.4413 12.862 57.2734 12.458 57.2734 11.792H56.7734H56.2734C56.2734 12.614 56.4816 13.322 56.9877 13.8173L57.3374 13.46ZM56.7734 11.792H57.2734V6.188H56.7734H56.2734V11.792H56.7734ZM56.7734 6.188V6.688H58.8494V6.188V5.688H56.7734V6.188ZM60.5054 7.64H60.0054V9.128H60.5054H61.0054V7.64H60.5054ZM60.5054 9.128V8.628H55.7054V9.128V9.628H60.5054V9.128ZM55.7054 9.128H56.2054V7.64H55.7054H55.2054V9.128H55.7054ZM55.7054 7.64V8.14H60.5054V7.64V7.14H55.7054V7.64Z" fill="black" mask="url(#path-1-outside-1_684_274)"/>
<g clip-path="url(#clip0_684_274)">
<path d="M19.6666 9.99992C19.6666 13.6818 16.6818 16.6666 12.9999 16.6666C9.31802 16.6666 6.33325 13.6818 6.33325 9.99992C6.33325 6.31802 9.31802 3.33325 12.9999 3.33325M19.6666 9.99992C19.6666 6.31802 16.6818 3.33325 12.9999 3.33325M19.6666 9.99992C18.7825 10.884 17.5835 11.3806 16.3333 11.3806C15.083 11.3806 13.884 10.884 12.9999 9.99992C12.1159 9.11586 11.6192 7.91683 11.6192 6.66659C11.6192 5.41634 12.1159 4.21731 12.9999 3.33325" stroke="#7300FF" stroke-width="2" stroke-linecap="round" stroke-linejoin="round"/>
</g>
<defs>
<clipPath id="clip0_684_274">
<rect width="16" height="16" fill="white" transform="translate(5 2)"/>
</clipPath>
</defs>
</svg>
